<mxfile host="app.diagrams.net" modified="2024-07-17T12:30:42.868Z" agent="Mozilla/5.0 (Windows NT 10.0; Win64; x64) AppleWebKit/537.36 (KHTML, like Gecko) Chrome/126.0.0.0 Safari/537.36" version="24.7.1" etag="K17BKTAnwIClnYFkv415" type="github">
  <diagram name="หน้า-1" id="hdjxT-WtWc2G8e5QVI52">
    <mxGraphModel>
      <root>
        <mxCell id="0" />
        <mxCell id="1" parent="0" />
      </root>
    </mxGraphModel>
  </diagram>
</mxfile>
